<svg xmlns="http://www.w3.org/2000/svg" xmlns:xlink="http://www.w3.org/1999/xlink" id="Calque_1" x="0" y="0" version="1.1" viewBox="0 0 170.5 26.3" xml:space="preserve" style="enable-background:new 0 0 170.5 26.3"><style type="text/css">.st0{fill:#2c2255}.st1{fill:#f7941e}.st2{fill:url(#SVGID_1_)}.st3{fill:url(#SVGID_2_)}.st4{fill:url(#SVGID_3_)}.st5{fill:#fff}.st6{fill:url(#SVGID_4_)}.st7{fill:url(#SVGID_5_)}.st8{fill:url(#SVGID_6_)}.st9{fill:url(#SVGID_7_)}.st10{fill:#865fc5}.st11{fill:#007acc}</style><path d="M7.2,16.5h-4c0.6,1.9,1.6,3.5,3,4.9c2.2,2.2,5.2,3.5,8.3,3.4c0.6,0,1.2,0,1.9-0.1c2.4-0.4,4.7-1.5,6.4-3.3	c1.4-1.4,2.4-3,3-4.9C25.7,16.5,7.2,16.5,7.2,16.5z M4.9,11.1H2.8c-0.1,0.5-0.1,0.9-0.1,1.4h23.4c0-0.5-0.1-0.9-0.1-1.4 M2.7,13.8	c0,0.5,0.1,0.9,0.1,1.4H26c0.1-0.5,0.1-0.9,0.2-1.4 M25.7,9.8c-0.6-1.9-1.6-3.6-3-4.9c-1.7-1.8-4-2.9-6.4-3.3	c-0.6-0.1-1.2-0.1-1.9-0.1c-3.1-0.1-6.1,1.2-8.3,3.4c-1.4,1.4-2.4,3.1-3,4.9" class="st0"/><path d="M2,13.2C2.1,7,6.6,1.8,12.7,0.9h-0.5C5.5,0.9-0.1,6.3-0.1,13.1S5.3,25.4,12,25.4c0.1,0,0.1,0,0.2,0h0.5	C6.6,24.5,2,19.3,2,13.2z" class="st1"/><linearGradient id="SVGID_1_" x1="-178.532" x2="-178.532" y1="636.859" y2="649.32" gradientTransform="matrix(15.959 0 0 -1.416 2863.6111 217.4881)" gradientUnits="userSpaceOnUse"><stop offset=".3" style="stop-color:#473788"/><stop offset=".87" style="stop-color:#2c2255"/></linearGradient><path d="M22.4,12.5c0-0.5-0.1-1-0.2-1.4H6.7c-0.1,0.5-0.2,0.9-0.2,1.4H22.4z" class="st2"/><linearGradient id="SVGID_2_" x1="-178.532" x2="-178.532" y1="638.78" y2="651.24" gradientTransform="matrix(15.959 0 0 -1.416 2863.6111 220.2051)" gradientUnits="userSpaceOnUse"><stop offset=".3" style="stop-color:#473788"/><stop offset=".87" style="stop-color:#2c2255"/></linearGradient><path d="M22.4,13.8h-16c0,0.5,0.1,1,0.2,1.4h15.5C22.3,14.8,22.4,14.3,22.4,13.8z" class="st3"/><linearGradient id="SVGID_3_" x1="-177.326" x2="-177.326" y1="496.757" y2="500.545" gradientTransform="matrix(14.498 0 0 -4.658 2585.2869 1629.5679)" gradientUnits="userSpaceOnUse"><stop offset=".3" style="stop-color:#473788"/><stop offset=".86" style="stop-color:#2c2255"/></linearGradient><path d="M14.4,21.2c3.1,0,5.9-1.8,7.2-4.7H7.2C8.5,19.3,11.3,21.2,14.4,21.2z" class="st4"/><path d="M5.3,13.8h20.9v-1.3H2.7v1.3H5.3z M7.1,9.8h-4c-0.1,0.4-0.2,0.9-0.3,1.3h23.1c-0.1-0.4-0.2-0.9-0.3-1.3 M24.4,15.2H2.8c0.1,0.4,0.2,0.9,0.3,1.3h22.5c0.1-0.4,0.2-0.9,0.3-1.3H24.4z" class="st5"/><g><linearGradient id="SVGID_4_" x1="-175.232" x2="-174.232" y1="395.637" y2="395.637" gradientTransform="matrix(12.113 0 0 -10.807 2169.4619 4290.5869)" gradientUnits="userSpaceOnUse"><stop offset=".26" style="stop-color:#f97a12"/><stop offset=".46" style="stop-color:#b07b58"/><stop offset=".72" style="stop-color:#577bae"/><stop offset=".91" style="stop-color:#1e7ce5"/><stop offset="1" style="stop-color:#087cfa"/></linearGradient><path d="M53.2,20.3l-6.3-5L50,9.5l9,3.5L53.2,20.3z" class="st6"/><linearGradient id="SVGID_5_" x1="-179.462" x2="-178.253" y1="417.312" y2="417.743" gradientTransform="matrix(16.546 0 0 -25.676 3025.4089 10732.9629)" gradientUnits="userSpaceOnUse"><stop offset="0" style="stop-color:#f97a12"/><stop offset=".07" style="stop-color:#cb7a3e"/><stop offset=".15" style="stop-color:#9e7b6a"/><stop offset=".24" style="stop-color:#757b91"/><stop offset=".33" style="stop-color:#537bb1"/><stop offset=".43" style="stop-color:#387ccc"/><stop offset=".54" style="stop-color:#237ce0"/><stop offset=".66" style="stop-color:#147cef"/><stop offset=".79" style="stop-color:#0b7cf7"/><stop offset="1" style="stop-color:#087cfa"/></linearGradient><path d="M72.7,7l-0.5,15.1l-10,4l-6-3.9L65,13l-3.9-8.5l3.5-4.2L72.7,7z" class="st7"/><linearGradient id="SVGID_6_" x1="-174.118" x2="-174.598" y1="407.761" y2="406.718" gradientTransform="matrix(11.59 0 0 -15.95 2083.77 6512.9512)" gradientUnits="userSpaceOnUse"><stop offset="0" style="stop-color:#fe315d"/><stop offset=".08" style="stop-color:#cb417e"/><stop offset=".16" style="stop-color:#9e4e9b"/><stop offset=".25" style="stop-color:#755bb4"/><stop offset=".34" style="stop-color:#5365ca"/><stop offset=".44" style="stop-color:#386ddb"/><stop offset=".54" style="stop-color:#2374e9"/><stop offset=".66" style="stop-color:#1478f3"/><stop offset=".79" style="stop-color:#0b7bf8"/><stop offset="1" style="stop-color:#087cfa"/></linearGradient><path d="M72.7,7l-7.9,9.4L61.1,4.6l3.5-4.2L72.7,7z" class="st8"/><linearGradient id="SVGID_7_" x1="-181.326" x2="-180.491" y1="417.056" y2="418.141" gradientTransform="matrix(20.013 0 0 -25.452 3678.0662 10635.3623)" gradientUnits="userSpaceOnUse"><stop offset="0" style="stop-color:#fe315d"/><stop offset=".04" style="stop-color:#f63462"/><stop offset=".1" style="stop-color:#df3a71"/><stop offset=".17" style="stop-color:#c24383"/><stop offset=".29" style="stop-color:#ad4a91"/><stop offset=".55" style="stop-color:#755bb4"/><stop offset=".92" style="stop-color:#1d76ed"/><stop offset="1" style="stop-color:#087cfa"/></linearGradient><path d="M59.1,21.7l-10.5,3.8l1.7-5.9l2.2-7.2l-6-2L50.3,0l8.2,1l8,9.2L59.1,21.7z" class="st9"/><path d="M51.7,5h16.1v16.1H51.7L51.7,5z"/><path d="M53.2,18.1h6v1h-6V18.1z M57.5,8.3V7.1h-3.4v1.2h1v4.2h-1v1.2h3.4v-1.2h-0.9V8.3L57.5,8.3z M60.7,13.9 c-0.5,0-0.9-0.1-1.3-0.3c-0.3-0.2-0.6-0.4-0.9-0.7l0.9-1c0.2,0.2,0.3,0.4,0.6,0.5c0.2,0.1,0.4,0.2,0.6,0.2c0.2,0,0.5-0.1,0.7-0.3 c0.2-0.3,0.3-0.6,0.2-0.9V7.1h1.5v4.4c0,0.4,0,0.7-0.1,1c-0.1,0.3-0.3,0.5-0.5,0.7c-0.2,0.2-0.5,0.4-0.7,0.4 C61.4,13.8,61.1,13.9,60.7,13.9" class="st5"/></g><g><path d="M111.9,0v22.5l-19.7-2.9l19.7,6.6l6.5-2.7V2.8L111.9,0z" class="st10"/><path d="M99,12.7l6.1,6l3.6-1.5V5.4l-3.6-1.5l-6.1,6l-3.6-2.8l-1.5,0.6v7.3l1.5,0.5L99,12.7z M105.1,8.1v6.2l-4.1-3.1 L105.1,8.1z M95.4,9l2.2,2.2l-2.2,2.1V9z" class="st10"/></g><g><path d="M158.5,0v22.5l-19.7-2.9l19.7,6.6l6.5-2.7V2.8L158.5,0z" class="st11"/><path d="M151.7,3.9l-6.1,6L142,7.1l-1.5,0.5l3.7,3.6l-3.7,3.6l1.5,0.5l3.6-2.7l6.1,6l3.6-1.5V5.4L151.7,3.9z M151.7,8.1v6.2l-4.1-3.1L151.7,8.1z" class="st11"/></g></svg>